<svg aria-hidden="true" style="width:0;height:0;position:absolute;overflow:hidden" xmlns="http://www.w3.org/2000/svg"><defs><symbol id="icon-basket" viewBox="0 0 32 32"><path d="M24.615 27.077c0 .68.241 1.26.721 1.74s1.061.721 1.741.721c.679 0 1.259-.241 1.74-.721s.721-1.06.721-1.74-.24-1.26-.721-1.741a2.373 2.373 0 0 0-1.74-.721c-.68 0-1.26.241-1.741.721s-.721 1.061-.721 1.741z"/><path d="M31.634 5.288a1.181 1.181 0 0 0-.865-.365H7.673c-.013-.09-.042-.253-.087-.49l-.106-.567c-.026-.141-.074-.311-.144-.509s-.154-.356-.25-.471a1.216 1.216 0 0 0-.932-.423H1.231c-.334 0-.622.122-.866.365S0 3.36 0 3.693s.122.622.365.865c.244.244.532.365.866.365h3.923L8.558 20.75c-.025.051-.157.295-.394.731s-.426.817-.567 1.144c-.141.327-.212.58-.212.76 0 .333.122.622.365.866.244.243.532.365.866.365h19.692c.333 0 .622-.122.865-.365s.366-.532.366-.866-.122-.622-.366-.865a1.184 1.184 0 0 0-.865-.366H10.616c.308-.616.462-1.025.462-1.23 0-.129-.016-.27-.048-.423s-.071-.324-.115-.51a4.443 4.443 0 0 1-.086-.413l20.077-2.346c.32-.039.583-.176.788-.414s.307-.509.307-.817V6.155c0-.333-.122-.622-.365-.866z"/><path d="M7.384 27.077c0 .68.24 1.26.721 1.74s1.061.721 1.741.721c.679 0 1.26-.241 1.74-.721s.721-1.06.721-1.74-.24-1.26-.721-1.741c-.481-.48-1.061-.721-1.74-.721s-1.26.241-1.741.721a2.371 2.371 0 0 0-.721 1.741z"/></symbol><symbol id="icon-search" viewBox="0 0 32 32"><path d="m31.587 29.695-7.926-7.933a13.284 13.284 0 0 0 3.006-8.423C26.667 5.988 20.688.002 13.33.002S0 5.988 0 13.339s5.979 13.33 13.337 13.33a13.29 13.29 0 0 0 8.423-3.006l7.926 7.926c.542.542 1.366.542 1.908 0s.542-1.353-.007-1.895zM2.66 13.34c0-5.888 4.783-10.671 10.671-10.671s10.677 4.79 10.677 10.677-4.79 10.677-10.677 10.677S2.66 19.227 2.66 13.339z"/></symbol><symbol id="icon-closeAlertBtn" viewBox="0 0 32 32"><path d="m32 3.196-3.2-3.2-12.8 12.8L3.2-.004 0 3.196l12.8 12.8L0 28.796l3.2 3.2 12.8-12.8L28.8 32l3.2-3.2L19.2 16z"/></symbol><symbol id="icon-vectorDown" viewBox="0 0 32 32"><path d="m0 8.026 16 15.948L32 8.026z"/></symbol><symbol id="icon-gift" viewBox="0 0 32 32"><path d="M18.857 24.214V11.428h-5.714v12.786q0 .446.321.688t.821.241h3.429q.5 0 .821-.241t.321-.688zM10.714 9.143h3.482l-2.25-2.875q-.464-.554-1.232-.554-.714 0-1.214.5T9 7.428t.5 1.214 1.214.5zM23 7.429q0-.714-.5-1.214t-1.214-.5q-.768 0-1.232.554l-2.232 2.875h3.464q.714 0 1.214-.5T23 7.43zM29.714 12v5.714q0 .25-.161.411t-.411.161h-1.714v7.429q0 .714-.5 1.214t-1.214.5H6.285q-.714 0-1.214-.5t-.5-1.214v-7.429H2.857q-.25 0-.411-.161t-.161-.411V12q0-.25.161-.411t.411-.161h7.857q-1.661 0-2.83-1.17t-1.17-2.83 1.17-2.83 2.83-1.17q1.911 0 3 1.375L16 7.749l2.286-2.946q1.089-1.375 3-1.375 1.661 0 2.83 1.17t1.17 2.83-1.17 2.83-2.83 1.17h7.857q.25 0 .411.161t.161.411z"/></symbol><symbol id="icon-heart" viewBox="0 0 32 32"><path d="M29.415 4.545c-1.676-1.676-3.894-2.591-6.262-2.591s-4.593.923-6.268 2.598l-.875.875-.889-.889a8.828 8.828 0 0 0-6.275-2.605 8.8 8.8 0 0 0-6.255 2.591A8.77 8.77 0 0 0 0 10.792c0 2.368.929 4.586 2.605 6.262l12.74 12.74c.176.176.414.271.644.271s.468-.088.644-.265L29.4 17.08a8.805 8.805 0 0 0 2.598-6.268 8.76 8.76 0 0 0-2.585-6.268zm-1.302 11.241L15.99 27.861 3.894 15.765c-1.33-1.33-2.062-3.094-2.062-4.973s.726-3.643 2.056-4.966A6.975 6.975 0 0 1 8.847 3.77a7 7 0 0 1 4.979 2.062l1.533 1.533c.36.36.936.36 1.296 0l1.52-1.52c1.33-1.33 3.1-2.062 4.973-2.062s3.636.733 4.966 2.056a6.978 6.978 0 0 1 2.056 4.973 6.95 6.95 0 0 1-2.056 4.973z"/></symbol><symbol id="icon-facebook" viewBox="0 0 32 32"><path d="M30.232.016H1.765A1.77 1.77 0 0 0 0 1.787v28.536c0 .976.789 1.768 1.765 1.768h15.328V19.672h-4.171v-4.84h4.168v-3.573c0-4.141 2.525-6.397 6.213-6.397 1.765 0 3.283.133 3.725.192v4.328h-2.557c-2.005 0-2.392.96-2.392 2.357v3.093h4.781l-.624 4.84h-4.157v12.419h8.155c.976 0 1.768-.792 1.768-1.768V1.784c0-.977-.791-1.769-1.768-1.771z"/></symbol><symbol id="icon-instagram" viewBox="0 0 32 32"><path d="M16 2.884c4.272 0 4.779.016 6.467.093 4.336.197 6.361 2.255 6.559 6.559.077 1.687.092 2.193.092 6.465 0 4.273-.016 4.779-.092 6.465-.199 4.3-2.219 6.361-6.559 6.559-1.688.077-2.192.093-6.467.093-4.272 0-4.779-.016-6.465-.093-4.347-.199-6.361-2.265-6.559-6.56-.077-1.687-.093-2.192-.093-6.465 0-4.272.017-4.777.093-6.465.199-4.303 2.219-6.361 6.559-6.559 1.688-.076 2.193-.092 6.465-.092zM16 0c-4.345 0-4.889.019-6.596.096C3.593.363.364 3.587.097 9.403.018 11.111 0 11.655 0 16s.019 4.891.096 6.597c.267 5.811 3.491 9.04 9.307 9.307 1.708.077 2.252.096 6.597.096s4.891-.019 6.597-.096c5.805-.267 9.043-3.491 9.305-9.307.079-1.707.097-2.252.097-6.597s-.019-4.889-.096-6.596c-.261-5.805-3.489-9.04-9.305-9.307C20.89.018 20.345 0 15.999 0zm0 7.784a8.217 8.217 0 1 0 .001 16.433A8.217 8.217 0 0 0 16 7.784zm0 13.549a5.333 5.333 0 1 1 0-10.666 5.333 5.333 0 0 1 0 10.666zM24.541 5.54a1.92 1.92 0 1 0 0 3.841 1.92 1.92 0 0 0 0-3.841z"/></symbol><symbol id="icon-pinterest" viewBox="0 0 32 32"><path d="M25.333 0H6.666A6.668 6.668 0 0 0-.001 6.667v18.667a6.668 6.668 0 0 0 6.667 6.667h18.667A6.666 6.666 0 0 0 32 25.334V6.667A6.667 6.667 0 0 0 25.333 0zM16 26.667c-1.1 0-2.16-.167-3.159-.476.435-.708 1.084-1.869 1.325-2.797l.665-2.535c.348.664 1.364 1.224 2.444 1.224 3.219 0 5.536-2.959 5.536-6.635 0-3.524-2.876-6.16-6.577-6.16-4.603 0-7.048 3.089-7.048 6.455 0 1.565.833 3.512 2.165 4.133.201.093.309.052.357-.143l.296-1.209a.322.322 0 0 0-.075-.307c-.441-.533-.793-1.517-.793-2.433 0-2.353 1.781-4.629 4.816-4.629 2.62 0 4.455 1.785 4.455 4.34 0 2.885-1.457 4.884-3.353 4.884-1.048 0-1.832-.865-1.58-1.928.301-1.268.884-2.636.884-3.552 0-.819-.44-1.503-1.349-1.503-1.071 0-1.931 1.108-1.931 2.591 0 .945.319 1.584.319 1.584s-1.057 4.471-1.251 5.303c-.215.921-.131 2.216-.037 3.059-3.965-1.553-6.776-5.413-6.776-9.932C5.333 10.11 10.109 5.334 16 5.334s10.667 4.776 10.667 10.667S21.891 26.668 16 26.668z"/></symbol><symbol id="icon-twitter" viewBox="0 0 32 32"><path d="M26.454.32H5.548A5.243 5.243 0 0 0 .319 5.549v20.906c0 2.877 2.352 5.226 5.229 5.226h20.906c2.874 0 5.226-2.352 5.226-5.229V5.55c0-2.877-2.352-5.229-5.226-5.229zm-.47 10.467c.01.224.016.451.016.678 0 6.928-5.181 14.915-14.659 14.915-2.909 0-5.619-.867-7.898-2.355a10.235 10.235 0 0 0 7.629-2.169c-2.256-.042-4.157-1.558-4.813-3.642a5.144 5.144 0 0 0 2.327-.089c-2.358-.483-4.134-2.602-4.134-5.139v-.067a5.064 5.064 0 0 0 2.333.656A5.266 5.266 0 0 1 4.494 9.21c0-.96.253-1.862.698-2.637 2.541 3.171 6.336 5.258 10.621 5.478a5.462 5.462 0 0 1-.134-1.194c0-2.896 2.307-5.242 5.152-5.242 1.482 0 2.822.637 3.76 1.654a10.141 10.141 0 0 0 3.27-1.274 5.226 5.226 0 0 1-2.266 2.899 10.24 10.24 0 0 0 2.96-.826 10.438 10.438 0 0 1-2.57 2.717z"/></symbol><symbol id="icon-youtube" viewBox="0 0 32 32"><path d="M6.203 0h1.92L9.44 4.936 10.661 0H12.6l-2.22 7.34v5.009H8.472V7.34L6.203 0zm8.792 3.164c-1.492 0-2.481.987-2.481 2.447v4.465c0 1.605.839 2.441 2.481 2.441 1.363 0 2.435-.911 2.435-2.441V5.611c0-1.425-1.063-2.447-2.435-2.447zM15.703 10c0 .496-.253.861-.709.861-.468 0-.739-.383-.739-.861V5.761c0-.499.229-.868.705-.868.52 0 .743.359.743.868V10zm6.305-6.76v6.915c-.207.259-.667.683-.996.683-.361 0-.451-.248-.451-.613V3.241h-1.693v7.613c0 .9.275 1.627 1.183 1.627.512 0 1.224-.267 1.957-1.137v1.005h1.693V3.241h-1.693zm2.937 18.477c-.597 0-.721.42-.721 1.017v.879h1.425v-.88c.001-.587-.123-1.016-.704-1.016zm-6.27.054a1.212 1.212 0 0 0-.333.264v5.407c.132.141.259.243.383.305.263.133.647.143.825-.089.093-.123.14-.321.14-.599V22.58c0-.293-.057-.515-.172-.667-.196-.257-.56-.285-.843-.143zm6.436-6.927c-3.472-.236-14.755-.236-18.221 0-3.752.256-4.195 2.523-4.223 8.489.028 5.956.467 8.233 4.223 8.489 3.467.236 14.749.236 18.221 0 3.752-.256 4.195-2.524 4.223-8.489-.028-5.956-.467-8.233-4.223-8.489zM8.679 29.092H6.862V19.039h-1.88v-1.707h5.576v1.707h-1.88v10.053zm6.461 0h-1.613v-.957a3.535 3.535 0 0 1-.928.807c-.869.499-2.063.487-2.063-1.273v-7.251h1.612v6.651c0 .349.084.584.429.584.315 0 .752-.404.948-.649v-6.585h1.613v8.675zm6.209-1.797c0 1.073-.401 1.908-1.475 1.908-.591 0-1.083-.216-1.532-.777v.667h-1.628v-11.76h1.628v3.787c.364-.444.859-.811 1.435-.811 1.181 0 1.573.999 1.573 2.175v4.812zm5.962-2.336h-3.085v1.637c0 .651.056 1.213.704 1.213.681 0 .721-.459.721-1.213v-.603h1.66v.652c0 1.671-.717 2.684-2.417 2.684-1.54 0-2.328-1.123-2.328-2.684V22.75c0-1.505.995-2.552 2.449-2.552 1.548 0 2.295.984 2.295 2.552v2.208z"/></symbol><symbol id="icon-telegram" viewBox="0 0 32 32"><path d="M24.512 30.372c.429.304.983.38 1.476.193.493-.188.856-.609.965-1.12C28.112 24 30.922 10.217 31.977 5.264c.08-.373-.053-.761-.347-1.011s-.7-.321-1.063-.187C24.976 6.135 7.759 12.595.722 15.199a1.103 1.103 0 0 0-.723 1.065c.016.472.333.881.791 1.019 3.156.944 7.299 2.257 7.299 2.257s1.936 5.847 2.945 8.82c.127.373.419.667.804.768.384.1.795-.005 1.081-.276l4.128-3.897s4.763 3.492 7.464 5.416zM9.832 18.803l2.239 7.384.497-4.676 13.58-12.248a.37.37 0 0 0 .044-.503.379.379 0 0 0-.501-.085L9.832 18.803z"/></symbol><symbol id="icon-print" viewBox="0 0 32 32"><path d="M28.758 9.622h-4.589V.32H7.83v9.302H3.241a1.58 1.58 0 0 0-1.581 1.581v11.178a1.58 1.58 0 0 0 1.581 1.581h3.61v-2.586h.979V31.68h16.339V21.376h.979v2.586h3.61a1.58 1.58 0 0 0 1.581-1.581V11.2a1.58 1.58 0 0 0-1.581-1.578zm-6.214 17.962-1.84 2.47H9.456v-8.678h13.088v6.208zm0-17.962H9.456V1.945h13.088v7.677z"/><path d="M11.411 22.938h9.491v1.626h-9.491v-1.626zM11.411 26.259h9.491v1.626h-9.491v-1.626z"/></symbol><symbol id="icon-sliderVector" viewBox="0 0 32 32"><path d="M31.52 21.446 17.157 7.082a1.636 1.636 0 0 0-2.314 0L.479 21.446a1.636 1.636 0 0 0 0 2.314l1.157 1.157a1.637 1.637 0 0 0 2.315 0L16 12.867l12.05 12.05a1.636 1.636 0 0 0 2.314 0l1.157-1.157a1.635 1.635 0 0 0-.001-2.314z"/></symbol><symbol id="icon-burger" viewBox="0 0 32 32"><path d="M2.06 2.672c-.739.036-.964.081-1.172.235C.41 3.259.32 3.574.32 4.981c0 1.172.018 1.298.207 1.569.108.162.316.388.451.487l.252.189h29.553l.243-.189c.586-.433.622-.541.622-2.109 0-1.587-.054-1.749-.658-2.1-.28-.162-.866-.171-14.145-.18-7.627-.009-14.28 0-14.785.027zM1.285 13.806c-.46.162-.766.46-.884.847-.054.189-.081.847-.063 1.56.027 1.37.099 1.56.712 1.92.307.18.469.18 14.956.18s14.65 0 14.956-.18c.64-.379.685-.523.685-2.119 0-1.641-.045-1.776-.766-2.146l-.397-.198H16.05c-11.981.009-14.488.027-14.767.135zM1.276 24.85a1.374 1.374 0 0 0-.478.289c-.424.397-.478.613-.478 1.938 0 1.415.09 1.722.622 2.074l.307.207h29.516l.307-.207c.55-.37.631-.649.604-2.155-.027-1.443-.072-1.578-.649-2.001-.243-.189-.252-.189-14.866-.207-8.069-.009-14.74.018-14.884.063z"/></symbol></defs></svg>