<svg aria-hidden="true" style="width:0;height:0;position:absolute;overflow:hidden" xmlns="http://www.w3.org/2000/svg"><defs><symbol id="icon-basket" viewBox="0 0 32 32"><path d="M24.615 27.077c0 .68.241 1.26.721 1.74s1.061.721 1.741.721c.679 0 1.259-.241 1.74-.721s.721-1.06.721-1.74-.24-1.26-.721-1.741a2.373 2.373 0 0 0-1.74-.721c-.68 0-1.26.241-1.741.721s-.721 1.061-.721 1.741z"/><path d="M31.634 5.288a1.181 1.181 0 0 0-.865-.365H7.673c-.013-.09-.042-.253-.087-.49l-.106-.567c-.026-.141-.074-.311-.144-.509s-.154-.356-.25-.471a1.216 1.216 0 0 0-.932-.423H1.231c-.334 0-.622.122-.866.365S0 3.36 0 3.693s.122.622.365.865c.244.244.532.365.866.365h3.923L8.558 20.75c-.025.051-.157.295-.394.731s-.426.817-.567 1.144c-.141.327-.212.58-.212.76 0 .333.122.622.365.866.244.243.532.365.866.365h19.692c.333 0 .622-.122.865-.365s.366-.532.366-.866-.122-.622-.366-.865a1.184 1.184 0 0 0-.865-.366H10.616c.308-.616.462-1.025.462-1.23 0-.129-.016-.27-.048-.423s-.071-.324-.115-.51a4.443 4.443 0 0 1-.086-.413l20.077-2.346c.32-.039.583-.176.788-.414s.307-.509.307-.817V6.155c0-.333-.122-.622-.365-.866z"/><path d="M7.384 27.077c0 .68.24 1.26.721 1.74s1.061.721 1.741.721c.679 0 1.26-.241 1.74-.721s.721-1.06.721-1.74-.24-1.26-.721-1.741c-.481-.48-1.061-.721-1.74-.721s-1.26.241-1.741.721a2.371 2.371 0 0 0-.721 1.741z"/></symbol><symbol id="icon-search" viewBox="0 0 32 32"><path d="m31.587 29.695-7.926-7.933a13.284 13.284 0 0 0 3.006-8.423C26.667 5.988 20.688.002 13.33.002S0 5.988 0 13.339s5.979 13.33 13.337 13.33a13.29 13.29 0 0 0 8.423-3.006l7.926 7.926c.542.542 1.366.542 1.908 0s.542-1.353-.007-1.895zM2.66 13.34c0-5.888 4.783-10.671 10.671-10.671s10.677 4.79 10.677 10.677-4.79 10.677-10.677 10.677S2.66 19.227 2.66 13.339z"/></symbol><symbol id="icon-closeAlertBtn" viewBox="0 0 32 32"><path d="m32 3.196-3.2-3.2-12.8 12.8L3.2-.004 0 3.196l12.8 12.8L0 28.796l3.2 3.2 12.8-12.8L28.8 32l3.2-3.2L19.2 16z"/></symbol><symbol id="icon-vectorDown" viewBox="0 0 32 32"><path d="m0 8.026 16 15.948L32 8.026z"/></symbol><symbol id="icon-gift" viewBox="0 0 32 32"><path d="M18.857 24.214V11.428h-5.714v12.786q0 .446.321.688t.821.241h3.429q.5 0 .821-.241t.321-.688zM10.714 9.143h3.482l-2.25-2.875q-.464-.554-1.232-.554-.714 0-1.214.5T9 7.428t.5 1.214 1.214.5zM23 7.429q0-.714-.5-1.214t-1.214-.5q-.768 0-1.232.554l-2.232 2.875h3.464q.714 0 1.214-.5T23 7.43zM29.714 12v5.714q0 .25-.161.411t-.411.161h-1.714v7.429q0 .714-.5 1.214t-1.214.5H6.285q-.714 0-1.214-.5t-.5-1.214v-7.429H2.857q-.25 0-.411-.161t-.161-.411V12q0-.25.161-.411t.411-.161h7.857q-1.661 0-2.83-1.17t-1.17-2.83 1.17-2.83 2.83-1.17q1.911 0 3 1.375L16 7.749l2.286-2.946q1.089-1.375 3-1.375 1.661 0 2.83 1.17t1.17 2.83-1.17 2.83-2.83 1.17h7.857q.25 0 .411.161t.161.411z"/></symbol><symbol id="icon-heart" viewBox="0 0 32 32"><path d="M29.415 4.545c-1.676-1.676-3.894-2.591-6.262-2.591s-4.593.923-6.268 2.598l-.875.875-.889-.889a8.828 8.828 0 0 0-6.275-2.605 8.8 8.8 0 0 0-6.255 2.591A8.77 8.77 0 0 0 0 10.792c0 2.368.929 4.586 2.605 6.262l12.74 12.74c.176.176.414.271.644.271s.468-.088.644-.265L29.4 17.08a8.805 8.805 0 0 0 2.598-6.268 8.76 8.76 0 0 0-2.585-6.268zm-1.302 11.241L15.99 27.861 3.894 15.765c-1.33-1.33-2.062-3.094-2.062-4.973s.726-3.643 2.056-4.966A6.975 6.975 0 0 1 8.847 3.77a7 7 0 0 1 4.979 2.062l1.533 1.533c.36.36.936.36 1.296 0l1.52-1.52c1.33-1.33 3.1-2.062 4.973-2.062s3.636.733 4.966 2.056a6.978 6.978 0 0 1 2.056 4.973 6.95 6.95 0 0 1-2.056 4.973z"/></symbol><symbol id="icon-facebook" viewBox="0 0 32 32"><path fill="#fff" style="fill:var(--color1,#fff)" d="M30.232.016H1.765A1.77 1.77 0 0 0 0 1.787v28.536c0 .976.789 1.768 1.765 1.768h15.328V19.672h-4.171v-4.84h4.168v-3.573c0-4.141 2.525-6.397 6.213-6.397 1.765 0 3.283.133 3.725.192v4.328h-2.557c-2.005 0-2.392.96-2.392 2.357v3.093h4.781l-.624 4.84h-4.157v12.419h8.155c.976 0 1.768-.792 1.768-1.768V1.784c0-.977-.791-1.769-1.768-1.771z"/></symbol><symbol id="icon-print" viewBox="0 0 32 32"><path d="M28.758 9.622h-4.589V.32H7.83v9.302H3.241a1.58 1.58 0 0 0-1.581 1.581v11.178a1.58 1.58 0 0 0 1.581 1.581h3.61v-2.586h.979V31.68h16.339V21.376h.979v2.586h3.61a1.58 1.58 0 0 0 1.581-1.581V11.2a1.58 1.58 0 0 0-1.581-1.578zm-6.214 17.962-1.84 2.47H9.456v-8.678h13.088v6.208zm0-17.962H9.456V1.945h13.088v7.677z"/><path d="M11.411 22.938h9.491v1.626h-9.491v-1.626zM11.411 26.259h9.491v1.626h-9.491v-1.626z"/></symbol><symbol id="icon-sliderVector" viewBox="0 0 32 32"><path d="M31.52 21.446 17.157 7.082a1.636 1.636 0 0 0-2.314 0L.479 21.446a1.636 1.636 0 0 0 0 2.314l1.157 1.157a1.637 1.637 0 0 0 2.315 0L16 12.867l12.05 12.05a1.636 1.636 0 0 0 2.314 0l1.157-1.157a1.635 1.635 0 0 0-.001-2.314z"/></symbol></defs></svg>